<?xml version="1.0" encoding="UTF-8"?>
<svg id="a" data-name="Layer 1" xmlns="http://www.w3.org/2000/svg" viewBox="0 0 2000 2000">
  <polygon points="1257.35 1000.55 1161.86 1282.19 1036.21 1438.19 830.58 1186.06 771.45 1015.01 1067 965.11 1257.35 1000.55" fill="none"/>
  <polygon points="1060.19 104.5 1051.62 743.66 718.64 891.21 617.37 936.14 594.48 715.69 612.3 692.32 642.42 652.77 644.97 649.44 1060.19 104.5" fill="#fff"/>
  <polygon points="1303.21 865.43 1279.24 936.06 1262.99 983.92 1067.16 947.47 765.7 998.36 692.36 1010.73 626.3 1021.85 619.96 961 619.26 954.33 1060.26 758.85 1303.21 865.43" fill="#fff"/>
  <polygon points="626.3 1021.85 626.28 1021.85 619.96 961 626.3 1021.85" fill="#fff"/>
  <polygon points="1802.1 1084.21 1657.63 1057.35 1640.7 1019.99 1636.97 1011.8 1802.1 1084.21" fill="#fff"/>
  <line x1="1895.69" y1="1119.3" x2="1880.17" y2="1099.47" fill="#fff"/>
  <polygon points="1846.55 1084.73 1679.81 1011.58 1626.23 988.08 1619.56 985.15 1602.42 977.64 1475.75 922.08 1401.5 889.5 1401.5 889.48 1395.85 887.02 1395.84 887.02 1384.63 882.1 1357.81 870.36 1324.8 855.91 1324.62 855.84 1322.83 855.05 1317.49 852.7 1156.55 782.1 1069 743.71 1069.05 740.88 1077.6 102.27 1846.55 1084.73" fill="#fff"/>
  <line x1="1872.1" y1="1114.91" x2="1895.69" y2="1119.3" fill="#fff"/>
  <polygon points="1802.1 1084.21 1636.97 1011.8 1636.97 1011.78 1802.1 1084.21" fill="#fff"/>
  <polygon points="1322.83 855.05 1317.32 852.64 1308.82 848.92 1156.55 782.1 1317.49 852.7 1322.83 855.05" fill="#fff"/>
  <polygon points="1075.92 749.48 1075.92 749.49 1084.53 750.66 1068.94 748.53 1068.94 748.54 1075.92 749.49 1075.92 749.48" fill="#fff"/>
  <rect x="1067.3" y="748.42" width="1.65" height="0" fill="#fff"/>
  <polygon points="1922.69 1684.35 1364.13 1373.69 1368.75 1313.82 1400.07 907.89 1613.15 1001.34 1613.16 1001.35 1643.64 1068.65 1645.52 1072.77 1922.69 1684.35" fill="#e6e6e6"/>
  <polygon points="1613.15 1001.34 1400.07 907.89 1400.07 907.86 1613.15 1001.34" fill="#3996f2"/>
  <polygon points="876.31 1741.53 708.38 1872.75 820.2 1733.97 871.99 1740.94 876.31 1741.53" fill="#e6e6e6"/>
  <line x1="633.05" y1="1938.54" x2="657.86" y2="1934.29" fill="#fff"/>
  <polygon points="1383.2 900.49 1351.02 1317.59 1346.67 1374.08 1345.21 1375.23 1125.11 1547.17 1047.44 1451.96 1177.33 1290.69 1274.61 1003.76 1287.82 964.86 1319.2 872.43 1340.88 881.93 1383.2 900.49" fill="#e6e6e6"/>
  <polygon points="1383.22 900.46 1383.2 900.49 1340.88 881.93 1383.2 900.46 1383.22 900.46" fill="#395ebb"/>
  <polygon points="1401.5 889.48 1401.5 889.5 1395.85 887.02 1401.5 889.48" fill="#fff"/>
  <polygon points="1340.88 881.93 1319.2 872.43 1319.2 872.41 1340.88 881.93" fill="#fff"/>
  <polygon points="1383.22 900.46 1383.2 900.49 1383.2 900.46 1383.22 900.46" fill="#fff"/>
  <polygon points="1383.22 900.46 1383.2 900.49 1383.2 900.46 1383.22 900.46" fill="#fff"/>
  <polygon points="1916.44 1700.79 686.79 1911.69 722.67 1883.65 900.36 1744.77 903.26 1742.51 917.29 1731.55 919.54 1729.8 944.7 1710.16 1063.17 1617.65 1068.38 1613.57 1077.38 1606.54 1122.39 1571.35 1129.89 1565.5 1136.09 1560.65 1342.96 1399.04 1355.84 1388.98 1356.59 1389.38 1916.44 1700.79" fill="#e6e6e6"/>
  <polygon points="1342.62 1399.55 1342.96 1399.04 1342.96 1399.04 1342.62 1399.55" fill="#395ef2"/>
  <polygon points="1922.71 1684.39 1364.13 1373.69 1922.69 1684.35 1922.71 1684.39" fill="#fff"/>
  <polygon points="944.7 1710.16 903.23 1742.55 900.39 1744.77 722.67 1883.65 900.36 1744.77 903.26 1742.51 917.29 1731.55 919.54 1729.8 944.7 1710.16" fill="#fff"/>
  <polygon points="900.39 1744.77 722.67 1883.65 900.36 1744.77 900.39 1744.77" fill="#fff"/>
  <rect x="1350.97" y="1385.77" width="1.66" height="0" transform="translate(-436.907 2126.2269) rotate(-68.1986)" fill="#fff"/>
  <polygon points="1048.66 1606.91 1036.83 1616.14 895.46 1726.57 812.8 1715.44 85.91 1617.28 645.62 1308.9 1048.66 1606.91" fill="#e6e6e6"/>
  <polygon points="944.7 1710.16 903.23 1742.55 917.29 1731.55 919.54 1729.8 944.7 1710.16" fill="#fff"/>
  <polygon points="917.29 1731.55 903.23 1742.55 900.39 1744.77 900.36 1744.77 903.26 1742.51 917.29 1731.55" fill="#fff"/>
  <polygon points="1036.83 1616.14 895.5 1726.57 895.46 1726.57 1036.83 1616.14" fill="#fff"/>
  <polygon points="625.49 646.32 591.86 690.46 570.84 488.23 625.49 646.32" fill="#e6e6e6"/>
  <path d="M1948.19,1698.51l-281.83-621.85,205.73,38.26,23.59,4.39-15.52-19.83L1069.47,63.61l-431.32,566.1-75.21-217.54-7.85-22.71-9.58,23.31L50.94,1616.67l-5.21,12.73,14.65,1.99,739.68,99.87-151.97,188.61-15.04,18.67,24.82-4.25,1282.82-220.01,13.6-2.34-6.08-13.42ZM1657.63,1057.35l-16.93-37.36-3.72-8.19v-.02l165.13,72.43-144.48-26.87ZM1069.05,740.88l8.55-638.61,768.95,982.46-166.75-73.15-53.57-23.5-6.67-2.93-17.13-7.51-126.67-55.56-74.25-32.58-5.65-2.48h-.02l-11.2-4.92-26.82-11.73-33.01-14.45-.19-.08-1.78-.79-5.51-2.41-8.5-3.72-152.27-66.81-87.55-38.4.05-2.83ZM654.56,1293.89l-26.48-254.7h.02l125.98-21.25,61.09,176.71,209.91,257.38,4.19,5.14,82.15,100.71-21.99,17.18-26.54,20.75v-.02l-408.31-301.91ZM771.45,1015.01l295.55-49.9,190.35,35.43-95.49,281.64-125.65,156.01-205.62-252.14-59.13-171.05ZM1047.44,1451.96l129.89-161.27,97.28-286.93,13.21-38.89,31.38-92.44v-.02l21.68,9.51,42.32,18.53h.02l-.02.03-32.19,417.1-4.35,56.49-1.46,1.15-220.1,171.95-77.66-95.22ZM1303.21,865.41v.02l-23.98,70.63-16.25,47.86-195.83-36.46-301.46,50.89-73.33,12.37-66.07,11.13h-.02l-7.02-67.53v-.02l441-195.46,242.95,106.56ZM642.42,652.77l2.54-3.34L1060.19,104.5l-8.57,639.16-332.98,147.55-101.27,44.93-22.92-220.42.03-.03,17.82-23.37,30.12-39.54ZM570.84,488.23l54.65,158.09-33.63,44.14-.03.02-21-202.27.02.03ZM549.32,449.29l27.13,261.37.36,3.43,1.47,14.2.79,7.6,21.6,207.64.65,6.29.05.51.68,6.49.28,2.73.23,2.17,2.51,24.18,4.04,38.85.79,7.61,1.01,9.72,25.96,250.03.19,1.66L75.24,1603.29,549.32,449.29ZM85.91,1617.28h-.03l559.74-308.38,403.04,298.01-11.83,9.23-141.32,110.42h-.05l-82.66-11.13-726.89-98.16ZM820.2,1733.97l51.79,6.97,4.31.59-167.93,131.22,111.82-138.78ZM686.79,1911.69l35.88-28.04,177.69-138.87,2.9-2.27,14.03-10.96,2.25-1.75,25.16-19.63,118.46-92.51,5.22-4.08,9-7.03,45.01-35.18,7.5-5.85,6.21-4.86,206.87-161.61,12.88-10.06.74.4,559.85,311.41-1229.65,210.9ZM1364.13,1373.69l4.63-59.88,31.32-405.92v-.03l213.07,93.48.02.02,30.48,67.3,1.88,4.13,277.17,611.58.02.03-558.58-310.69Z" fill="#ccc"/>
  <polygon points="1111.4 1557.88 1089.41 1575.06 1062.87 1595.8 654.56 1293.89 628.09 1039.19 754.07 1017.94 815.16 1194.65 1025.06 1452.04 1029.26 1457.17 1111.4 1557.88" fill="#e6e6e6"/>
  <polygon points="1089.41 1575.06 1062.87 1595.81 1062.87 1595.8 1089.41 1575.06" fill="#395ebb"/>
  <polygon points="654.56 1293.89 628.08 1039.19 628.09 1039.19 654.56 1293.89" fill="#fff"/>
  <polygon points="637.07 1293.76 75.24 1603.29 549.32 449.29 576.44 710.66 576.8 714.09 578.28 728.29 579.07 735.9 600.67 943.54 601.32 949.83 601.37 950.34 602.05 956.83 602.33 959.56 602.57 961.73 605.08 985.91 609.11 1024.76 609.91 1032.36 610.91 1042.08 636.88 1292.1 637.07 1293.76" fill="#e6e6e6"/>
  <polygon points="617.37 936.14 594.45 715.72 594.48 715.69 617.37 936.14" fill="#fff"/>
  <polygon points="645.62 1308.9 85.91 1617.28 85.87 1617.28 645.62 1308.9" fill="#fff"/>
  <polygon points="591.86 690.46 591.83 690.47 570.83 488.2 570.84 488.23 591.86 690.46" fill="#fff"/>
  <polygon points="635.34 1276.86 638.71 1284.87 638.72 1284.87 635.34 1276.86" fill="#fff"/>
</svg>